first trial
nRows=39
nColumns=38

# SIMM Motion File Header:
name Sujet_07_velo_100.mvnx
datacolumns 38
datarows 39
otherdata 1
range 0.0000 0.6340
endheader
time pelvis_tilt  pelvis_list  pelvis_rotation  pelvis_tx  pelvis_ty  pelvis_tz  hip_flexion_r  hip_adduction_r  hip_rotation_r  knee_angle_r  ankle_angle_r  subtalar_angle_r  mtp_angle_r  hip_flexion_l  hip_adduction_l  hip_rotation_l  knee_angle_l  ankle_angle_l  subtalar_angle_l  mtp_angle_l  lumbar_extension  lumbar_bending  lumbar_rotation  arm_flex_r  arm_add_r  arm_rot_r  elbow_flex_r  pro_sup_r  wrist_flex_r  wrist_dev_r  arm_flex_l  arm_add_l  arm_rot_l  elbow_flex_l  pro_sup_l  wrist_flex_l  wrist_dev_l
0.0000	-30.0801	0.5805	-50.6964	0.0000	1.2500	-0.0000	68.4175	-7.0047	-12.1773	43.2118	0.1903	-1.0747	0.0000	78.7969	-6.0939	0.5940	93.3956	-0.4017	1.7534	0.0000	-18.0409	0.8317	1.0534	110.0842	-3.5183	22.3211	19.6578	66.7475	-47.4360	-38.1358	94.4680	-4.6161	39.3308	17.4738	40.8587	-48.6145	-47.8227	
0.0170	-29.8551	1.0518	-50.0905	0.0000	1.2500	-0.0000	65.0733	-7.4479	-11.7019	39.3690	-4.7204	-0.1835	0.0000	80.9940	-5.5905	0.6277	96.3209	1.8419	1.1877	-0.0000	-18.1439	0.7225	0.9146	109.4785	-3.7145	22.0762	19.7850	66.5943	-47.3936	-38.2513	94.5602	-4.6649	39.4913	17.7633	40.9275	-48.5768	-47.6968	
0.0340	-29.6258	1.5193	-49.4879	0.0000	1.2500	-0.0000	61.7203	-7.9111	-11.2840	35.5260	-9.6750	0.7956	-0.0000	83.1878	-5.0898	0.6190	99.2466	4.0768	0.6460	0.0000	-18.2482	0.6139	0.7760	108.8707	-3.9054	21.8295	19.9109	66.4402	-47.3514	-38.3670	94.6528	-4.7132	39.6519	18.0514	40.9946	-48.5387	-47.5701	
0.0500	-29.4847	1.9312	-48.9994	0.0000	1.2500	-0.0000	58.8730	-8.3627	-10.8814	32.7867	-13.7138	1.5973	-0.0000	85.2644	-4.6930	0.4963	101.3321	6.4203	-0.0958	0.0000	-18.3118	0.5161	0.6482	108.4066	-4.0761	21.6378	20.0137	66.2605	-47.2977	-38.4518	94.7490	-4.7962	39.8716	18.3214	40.9805	-48.6039	-47.5233	
0.0670	-29.4877	2.2632	-48.6962	0.0000	1.2500	-0.0000	56.6736	-8.8050	-10.4377	31.5183	-16.5717	2.0941	0.0000	87.3001	-4.4632	0.2426	102.3811	9.1746	-1.3178	-0.0000	-18.3056	0.4260	0.5357	108.1692	-4.2343	21.5287	20.0744	66.0091	-47.2152	-38.4849	94.8572	-4.9447	40.1986	18.5781	40.8333	-48.8748	-47.6136	
0.0840	-29.5821	2.5442	-48.5028	0.0000	1.2500	-0.0000	54.9882	-9.2375	-9.9711	31.3523	-18.4890	2.3827	-0.0000	89.2208	-4.3485	-0.0928	102.5920	12.0456	-2.7340	0.0000	-18.2576	0.3457	0.4339	108.0767	-4.3773	21.4760	20.1125	65.7327	-47.1209	-38.4867	94.9700	-5.1276	40.5851	18.8227	40.6044	-49.2495	-47.7849	
0.1000	-29.6981	2.8045	-48.3081	0.0000	1.2500	-0.0000	53.9188	-9.6185	-9.5317	32.2946	-19.2407	2.5106	0.0000	90.6874	-4.2735	-0.4741	101.7129	14.2582	-3.7469	0.0000	-18.2109	0.2932	0.3395	108.0279	-4.4758	21.4570	20.1661	65.5461	-47.0539	-38.4875	95.0660	-5.2878	40.9466	19.0295	40.3725	-49.5249	-47.9479	
0.1170	-29.8394	3.0967	-48.0226	0.0000	1.2500	-0.0000	53.5007	-9.9598	-9.1826	34.4141	-18.3666	2.3363	-0.0000	91.6540	-4.1924	-0.8590	99.5126	15.5961	-4.1546	0.0000	-18.1694	0.2739	0.2399	107.9872	-4.5000	21.4571	20.2732	65.5169	-47.0463	-38.5074	95.1201	-5.4086	41.3245	19.1871	40.1184	-49.6117	-48.0845	
0.1340	-30.0019	3.3692	-47.7351	0.0000	1.2500	-0.0000	53.7000	-10.2338	-8.8388	37.6444	-16.3178	1.9304	0.0000	92.1657	-4.1377	-1.2833	96.2183	16.2816	-4.2347	0.0000	-18.1289	0.2826	0.1478	107.9907	-4.4803	21.4913	20.3965	65.5779	-47.0661	-38.5265	95.1565	-5.5081	41.6769	19.3013	39.8637	-49.5990	-48.2124	
0.1500	-30.1042	3.4933	-47.6040	0.0000	1.2500	-0.0000	54.5128	-10.3330	-8.3305	41.7941	-14.2198	1.6615	0.0000	92.0202	-4.1412	-1.8321	92.2628	16.1970	-4.1185	-0.0000	-18.1205	0.3206	0.0979	108.0440	-4.4768	21.5804	20.4609	65.6411	-47.0566	-38.5156	95.2261	-5.5812	41.7932	19.3695	39.7497	-49.5520	-48.2961	
0.1670	-30.1193	3.4050	-47.6669	0.0000	1.2500	-0.0000	56.0082	-10.1819	-7.5371	47.0291	-12.2351	1.6756	0.0000	91.1573	-4.1784	-2.5929	87.7069	15.1394	-3.7803	-0.0000	-18.1656	0.4099	0.1022	108.1813	-4.5286	21.7767	20.4160	65.6371	-46.9820	-38.4606	95.3935	-5.6251	41.5140	19.4304	39.8881	-49.4946	-48.3025	
0.1840	-30.0747	3.1672	-47.8870	0.0000	1.2500	-0.0000	58.1114	-9.8210	-6.6022	53.1962	-10.1855	1.8078	-0.0000	89.6399	-4.2508	-3.4827	82.4837	13.3110	-3.2292	-0.0000	-18.2435	0.5282	0.1488	108.3685	-4.5949	22.0284	20.3122	65.6355	-46.8785	-38.3758	95.5933	-5.6428	40.9988	19.4472	40.1670	-49.4032	-48.2648	
0.2000	-29.9729	2.8400	-48.3144	0.0000	1.2500	-0.0000	60.6013	-9.3203	-5.7618	59.6224	-8.6695	2.0242	0.0000	87.4506	-4.4281	-4.3416	76.8378	11.2032	-2.6155	-0.0000	-18.3231	0.6112	0.2365	108.5086	-4.6170	22.2001	20.2254	65.7563	-46.7974	-38.2746	95.6817	-5.6367	40.5164	19.3058	40.3916	-49.2724	-48.2465	
0.2170	-29.7816	2.4236	-49.0065	0.0000	1.2500	-0.0000	63.5044	-8.6705	-5.1411	66.3935	-8.0866	2.4189	-0.0000	84.4252	-4.7240	-5.2960	70.6564	8.9263	-1.9331	0.0000	-18.3989	0.6355	0.3695	108.5619	-4.5710	22.1926	20.1914	66.1071	-46.7541	-38.1523	95.5777	-5.5625	40.1716	18.8750	40.4743	-49.0822	-48.2738	
0.2340	-29.5272	1.9233	-49.9011	0.0000	1.2500	-0.0000	66.7824	-7.8675	-4.6822	73.4208	-8.0352	2.9947	0.0000	80.7264	-5.0865	-6.2858	64.0522	6.3702	-1.1626	-0.0000	-18.4762	0.6245	0.5433	108.5676	-4.4828	22.1043	20.1717	66.5791	-46.7331	-38.0136	95.3637	-5.4631	39.8592	18.2855	40.4987	-48.8523	-48.3199	
0.2500	-29.3003	1.4043	-50.8703	0.0000	1.2500	-0.0000	70.1259	-7.0087	-4.3147	79.7625	-7.9193	3.5451	-0.0000	76.8185	-5.5353	-6.8693	57.6316	3.6904	-0.4541	-0.0000	-18.5389	0.5843	0.7438	108.5454	-4.3687	22.0952	20.1335	66.9691	-46.7389	-37.8842	95.1394	-5.4715	39.5320	17.8150	40.5312	-48.6361	-48.3695	
0.2670	-29.1218	0.8859	-51.9052	0.0000	1.2500	-0.0000	73.5308	-6.1363	-4.0043	85.1467	-7.8180	4.1251	0.0000	72.6341	-6.1684	-6.7822	51.3535	0.9182	0.1422	-0.0000	-18.5800	0.5071	0.9615	108.4720	-4.1853	22.2538	20.0660	67.1929	-46.7775	-37.7592	94.9267	-5.6923	39.1441	17.5830	40.6198	-48.4578	-48.4278	
0.2840	-28.9685	0.3471	-53.0163	0.0000	1.2500	-0.0000	77.0019	-5.2147	-3.8064	89.8385	-7.6523	4.6361	0.0000	68.2201	-6.9669	-6.3506	45.2732	-1.9845	0.6691	0.0000	-18.6053	0.4013	1.2063	108.3686	-3.9754	22.4912	19.9824	67.3358	-46.8430	-37.6434	94.6994	-6.0205	38.7412	17.4697	40.7210	-48.2934	-48.4900	
0.3000	-28.8696	-0.2126	-54.1117	0.0000	1.2500	-0.0000	80.2527	-4.2387	-3.7351	93.6971	-6.6018	4.5783	0.0000	64.2152	-7.7943	-5.9561	40.1493	-4.9731	1.1190	0.0000	-18.6187	0.2976	1.4933	108.3231	-3.8832	22.7024	19.8875	67.4493	-46.9230	-37.5774	94.4862	-6.2754	38.4143	17.3937	40.7665	-48.1251	-48.5256	
0.3170	-28.8395	-0.8158	-55.2776	0.0000	1.2500	-0.0000	83.2907	-3.1384	-3.7816	96.7402	-4.1890	3.7144	-0.0000	60.7351	-8.6490	-5.6078	36.0676	-8.3887	1.5385	0.0000	-18.6221	0.1757	1.8529	108.3992	-3.9326	22.8153	19.7347	67.6006	-47.0058	-37.5943	94.2766	-6.3960	38.2141	17.3484	40.7032	-47.9225	-48.5061	
0.3340	-28.8617	-1.4449	-56.4317	0.0000	1.2500	-0.0000	86.1162	-2.0087	-3.9430	98.9375	-0.9197	2.2855	-0.0000	57.6639	-9.5313	-5.2645	32.9277	-11.9088	1.9328	0.0000	-18.6133	0.0556	2.2546	108.5364	-4.0990	22.9036	19.5697	67.7235	-47.1029	-37.6610	94.0840	-6.4429	38.0899	17.3394	40.5828	-47.7157	-48.4596	
0.3500	-28.9264	-2.0408	-57.2299	0.0000	1.2500	-0.0000	88.4415	-1.1043	-4.1663	100.0790	2.5604	0.5016	0.0000	55.3163	-10.2792	-5.1381	31.2404	-14.4756	2.1854	-0.0000	-18.5931	0.0286	2.6220	108.6395	-4.4535	23.0829	19.5381	67.6674	-47.2372	-37.7182	93.9766	-6.4178	37.9824	17.3056	40.4932	-47.5771	-48.4410	
0.3670	-29.0736	-2.6423	-57.4580	0.0000	1.2500	-0.0000	90.1944	-0.5370	-4.2595	100.0591	6.4915	-1.9912	0.0000	53.8699	-10.8323	-5.3456	31.3032	-15.6531	2.1660	0.0000	-18.5537	0.1802	2.9444	108.6684	-5.1446	23.4924	19.7311	67.2613	-47.4619	-37.7611	94.0052	-6.3039	37.8365	17.2063	40.4839	-47.5667	-48.4855	
0.3840	-29.2754	-3.2106	-57.3317	0.0000	1.2500	-0.0000	91.4544	-0.1992	-4.3137	98.9814	10.6452	-4.8220	0.0000	53.1722	-11.2628	-5.6832	32.8457	-15.8477	1.9473	0.0000	-18.5024	0.4242	3.2326	108.6680	-6.0252	23.9916	20.0689	66.6731	-47.7236	-37.7944	94.1198	-6.1193	37.7081	17.0831	40.5058	-47.6248	-48.5583	
0.4000	-29.4231	-3.5677	-57.1482	0.0000	1.2500	-0.0000	92.1630	-0.0132	-4.6797	96.9593	13.7184	-6.7386	0.0000	53.0490	-11.6066	-5.8583	35.5400	-15.2470	1.6653	0.0000	-18.4650	0.5950	3.4428	108.6639	-6.7234	24.2753	20.4302	66.2598	-47.8857	-37.7730	94.2354	-5.9181	37.7047	16.9990	40.4983	-47.6442	-48.6084	
0.4170	-29.4844	-3.6109	-57.0051	0.0000	1.2500	-0.0000	92.3345	0.0685	-5.6257	93.8857	15.2449	-7.1517	0.0000	53.5097	-11.8823	-5.7322	39.5242	-13.6156	1.2448	0.0000	-18.4498	0.6258	3.5489	108.6933	-7.0720	24.1970	20.7931	66.2115	-47.8487	-37.6676	94.3394	-5.6928	37.8629	16.9877	40.4655	-47.5962	-48.6383	
0.4340	-29.4899	-3.4423	-56.8027	0.0000	1.2500	-0.0000	91.9532	0.0211	-6.8818	89.8490	15.7321	-6.7599	0.0000	54.5456	-12.0641	-5.4327	44.6639	-11.2127	0.7364	-0.0000	-18.4503	0.5839	3.5771	108.7125	-7.2367	23.9026	21.1697	66.3400	-47.7127	-37.5079	94.4431	-5.4511	38.1458	17.0148	40.4041	-47.5094	-48.6454	
0.4500	-29.4198	-3.1924	-56.5425	0.0000	1.2500	-0.0000	90.9148	-0.1814	-8.0119	85.2627	15.3659	-6.2502	0.0000	55.9491	-12.1227	-5.0804	50.2147	-8.9458	0.4721	0.0000	-18.4717	0.5054	3.5617	108.6215	-7.3444	23.5263	21.4805	66.4369	-47.6399	-37.3364	94.4969	-5.2693	38.5498	17.0413	40.2426	-47.3630	-48.5707	
0.4670	-29.2429	-2.8873	-56.2538	0.0000	1.2500	-0.0000	89.1259	-0.5625	-8.8942	80.1723	14.0411	-5.8249	0.0000	57.6837	-12.0340	-4.6917	56.0775	-7.0988	0.6186	-0.0000	-18.5303	0.3808	3.5146	108.3630	-7.4198	23.0895	21.6932	66.4258	-47.7194	-37.1400	94.4478	-5.2189	39.2802	17.0902	39.7283	-47.0689	-48.3358	
0.4840	-28.9890	-2.5039	-55.9102	0.0000	1.2500	-0.0000	86.6755	-1.0860	-9.6817	74.5416	11.8656	-5.2644	0.0000	59.7805	-11.8119	-4.2728	62.3440	-5.3585	1.0116	0.0000	-18.6107	0.2198	3.4244	107.9956	-7.4364	22.5711	21.8408	66.3839	-47.8622	-36.9319	94.3476	-5.2281	40.1313	17.1357	39.1147	-46.7142	-48.0182	
0.5000	-28.7301	-2.0987	-55.4298	0.0000	1.2500	-0.0000	83.7330	-1.6917	-10.3602	68.7070	9.3570	-4.5778	0.0000	62.1314	-11.4874	-3.9321	68.5500	-3.7051	1.5014	-0.0000	-18.6707	0.0861	3.2911	107.5913	-7.4454	22.0412	21.9394	66.3313	-47.9633	-36.7936	94.3044	-5.1566	40.4833	17.0741	39.0875	-46.5419	-47.7929	
0.5170	-28.4638	-1.6743	-54.7540	0.0000	1.2500	-0.0000	80.2049	-2.4053	-11.0371	62.6424	6.6606	-3.7185	0.0000	64.7418	-11.0611	-3.7578	74.7109	-2.2182	2.2477	-0.0000	-18.6998	-0.0008	3.1043	107.1559	-7.4646	21.5470	21.9789	66.2274	-47.9876	-36.7616	94.4117	-4.9042	39.7840	16.7833	40.2579	-46.7116	-47.7607	
0.5340	-28.1890	-1.2309	-53.9433	0.0000	1.2500	-0.0000	76.1804	-3.1809	-11.6740	56.4164	3.6451	-2.7717	-0.0000	67.5957	-10.5304	-3.7019	80.8093	-0.8133	3.1034	0.0000	-18.7090	-0.0617	2.8744	106.6829	-7.4742	21.0419	21.9681	66.1113	-47.9699	-36.7996	94.5841	-4.5791	38.5843	16.3701	42.0146	-47.0639	-47.8204	
0.5500	-27.9814	-0.8180	-53.0913	0.0000	1.2500	-0.0000	72.1067	-3.8785	-12.0067	50.5048	0.3908	-1.9260	-0.0000	70.5551	-9.9183	-3.6557	86.3311	0.7609	3.4643	0.0000	-18.6873	-0.0932	2.6317	106.2250	-7.4701	20.4555	21.9540	66.1220	-47.9103	-36.8791	94.6502	-4.3409	37.9197	16.1024	43.2057	-47.3640	-47.8465	
0.5670	-27.8467	-0.4612	-52.1958	0.0000	1.2500	-0.0000	67.9481	-4.5086	-11.8573	44.8300	-3.2802	-1.1489	-0.0000	73.6576	-9.1737	-3.6660	91.2520	2.5852	3.0387	-0.0000	-18.6290	-0.0823	2.3774	105.7907	-7.4572	19.6549	21.9704	66.4268	-47.7860	-36.9993	94.4738	-4.2422	38.3629	16.1105	43.2181	-47.5099	-47.7815	
0.5840	-27.7799	-0.1305	-51.2554	0.0000	1.2500	-0.0000	63.7346	-5.1189	-11.4033	39.4403	-7.2146	-0.4364	0.0000	76.8598	-8.3409	-3.7132	95.6022	4.5553	2.1329	-0.0000	-18.5391	-0.0429	2.1093	105.3710	-7.4295	18.7735	21.9857	66.8594	-47.6204	-37.1608	94.1825	-4.2243	39.3424	16.2846	42.6648	-47.6041	-47.6837	
0.6000	-27.8424	0.2131	-50.3612	0.0000	1.2500	-0.0000	60.0188	-5.6521	-10.8500	34.9885	-10.8526	0.0248	-0.0000	79.9132	-7.5700	-3.5476	98.9392	6.6411	1.0464	-0.0000	-18.4223	-0.0113	1.8533	104.9941	-7.3695	18.1402	21.9504	67.0587	-47.4820	-37.3377	93.9930	-4.2655	40.1808	16.5602	42.2281	-47.7202	-47.6018	
0.6170	-28.1030	0.6212	-49.4762	0.0000	1.2500	-0.0000	56.9072	-6.1136	-10.1310	31.4867	-14.3837	0.1642	0.0000	82.8622	-6.8724	-2.8728	101.1240	8.9909	-0.2095	0.0000	-18.2606	0.0109	1.6007	104.6419	-7.2538	17.9278	21.7921	66.8221	-47.3997	-37.5332	93.9983	-4.3938	40.6485	16.9721	42.1380	-47.8933	-47.5470	
0.6340	-28.4923	1.0520	-48.6301	0.0000	1.2500	-0.0000	54.2959	-6.5317	-9.2674	28.9160	-17.6157	0.1457	-0.0000	85.6732	-6.2054	-1.9563	102.2886	11.4491	-1.6038	0.0000	-18.0715	0.0259	1.3603	104.3340	-7.1108	17.9641	21.5745	66.3462	-47.3446	-37.7450	94.1104	-4.5781	40.9761	17.4830	42.1568	-48.0882	-47.5081	
